<svg width="24" height="24" viewBox="0 0 24 24" fill="none" xmlns="http://www.w3.org/2000/svg">
<mask id="path-1-inside-1_5109_15777" fill="white">
<path d="M2.00037 18.6437V12.8966C2.00037 12.5563 2.09518 12.1939 2.28481 11.8092C2.47444 11.4245 2.75 11.1356 3.11148 10.9425V8.29885C3.11148 7.65057 3.32518 7.10536 3.75259 6.66322C4.18 6.22107 4.70703 6 5.3337 6H10.3337C10.7167 6 11.0437 6.08161 11.3148 6.24483C11.5852 6.40728 11.8137 6.63218 12.0004 6.91954C12.187 6.63218 12.4156 6.40728 12.6859 6.24483C12.957 6.08161 13.2841 6 13.667 6H18.667C19.2937 6 19.8207 6.22107 20.2481 6.66322C20.6756 7.10536 20.8893 7.65057 20.8893 8.29885V10.9425C21.2515 11.1356 21.527 11.4245 21.7159 11.8092C21.9056 12.1939 22.0004 12.5563 22.0004 12.8966V18.6437H20.8893V16.3448H3.11148V18.6437H2.00037ZM12.5559 10.5977H19.7781V8.29885C19.7781 7.97318 19.6715 7.70038 19.4581 7.48046C19.2448 7.26054 18.9811 7.15019 18.667 7.14943H13.667C13.3522 7.14943 13.0885 7.25977 12.8759 7.48046C12.6633 7.70115 12.5567 7.97395 12.5559 8.29885V10.5977ZM4.22259 10.5977H11.4448V8.29885C11.4448 7.97318 11.3381 7.70038 11.1248 7.48046C10.9115 7.26054 10.6478 7.15019 10.3337 7.14943H5.3337C5.01888 7.14943 4.75518 7.25977 4.54259 7.48046C4.33 7.70115 4.22333 7.97395 4.22259 8.29885V10.5977ZM3.11148 15.1954H20.8893V12.8966C20.8893 12.5709 20.7826 12.2981 20.5693 12.0782C20.3559 11.8582 20.0922 11.7479 19.7781 11.7471H4.22259C3.90777 11.7471 3.64407 11.8575 3.43148 12.0782C3.21888 12.2989 3.11222 12.5716 3.11148 12.8966V15.1954Z"/>
</mask>
<path d="M2.00037 18.6437H0.500366V20.1437H2.00037V18.6437ZM3.11148 10.9425L3.81825 12.2656L4.61148 11.8418V10.9425H3.11148ZM11.3148 6.24483L10.5411 7.52991L10.5423 7.53058L11.3148 6.24483ZM12.0004 6.91954L10.7425 7.73667L12.0004 9.67308L13.2583 7.73667L12.0004 6.91954ZM12.6859 6.24483L13.4585 7.53058L13.4596 7.52991L12.6859 6.24483ZM20.8893 8.29885H19.3893H20.8893ZM20.8893 10.9425H19.3893V11.8427L20.1836 12.2662L20.8893 10.9425ZM21.7159 11.8092L20.3695 12.4703L20.3705 12.4724L21.7159 11.8092ZM22.0004 18.6437V20.1437H23.5004V18.6437H22.0004ZM20.8893 18.6437H19.3893V20.1437H20.8893V18.6437ZM20.8893 16.3448H22.3893V14.8448H20.8893V16.3448ZM3.11148 16.3448V14.8448H1.61148V16.3448H3.11148ZM3.11148 18.6437V20.1437H4.61148V18.6437H3.11148ZM12.5559 10.5977H11.0559V12.0977H12.5559V10.5977ZM19.7781 10.5977V12.0977H21.2781V10.5977H19.7781ZM18.667 7.14943L18.6707 5.64943H18.667V7.14943ZM12.5559 8.29885L11.0559 8.29543V8.29885H12.5559ZM4.22259 10.5977H2.72259V12.0977H4.22259V10.5977ZM11.4448 10.5977V12.0977H12.9448V10.5977H11.4448ZM10.3337 7.14943L10.3374 5.64943H10.3337V7.14943ZM4.22259 8.29885L2.72259 8.29543V8.29885H4.22259ZM3.11148 15.1954H1.61148V16.6954H3.11148V15.1954ZM20.8893 15.1954V16.6954H22.3893V15.1954H20.8893ZM19.7781 11.7471L19.7818 10.2471H19.7781V11.7471ZM3.11148 12.8966L1.61148 12.8931V12.8966H3.11148ZM2.00037 18.6437H3.50037V12.8966H2.00037H0.500366V18.6437H2.00037ZM2.00037 12.8966H3.50037C3.50037 12.8383 3.5165 12.7031 3.63022 12.4724L2.28481 11.8092L0.939403 11.146C0.673865 11.6846 0.500366 12.2743 0.500366 12.8966H2.00037ZM2.28481 11.8092L3.63022 12.4724C3.68804 12.3551 3.74677 12.3038 3.81825 12.2656L3.11148 10.9425L2.4047 9.61948C1.75322 9.9675 1.26084 10.4939 0.939403 11.146L2.28481 11.8092ZM3.11148 10.9425H4.61148V8.29885H3.11148H1.61148V10.9425H3.11148ZM3.11148 8.29885H4.61148C4.61148 8.01629 4.68982 7.85187 4.83107 7.70575L3.75259 6.66322L2.67411 5.62069C1.96054 6.35886 1.61148 7.28486 1.61148 8.29885H3.11148ZM3.75259 6.66322L4.83107 7.70575C4.96984 7.5622 5.10494 7.5 5.3337 7.5V6V4.5C4.30912 4.5 3.39015 4.87995 2.67411 5.62069L3.75259 6.66322ZM5.3337 6V7.5H10.3337V6V4.5H5.3337V6ZM10.3337 6V7.5C10.419 7.5 10.4731 7.50911 10.503 7.51658C10.5179 7.52029 10.5274 7.52375 10.5328 7.52593C10.538 7.52808 10.5405 7.52952 10.5411 7.52991L11.3148 6.24483L12.0885 4.95974C11.5391 4.62898 10.9319 4.5 10.3337 4.5V6ZM11.3148 6.24483L10.5423 7.53058C10.6009 7.56582 10.669 7.62356 10.7425 7.73667L12.0004 6.91954L13.2583 6.10241C12.9584 5.6408 12.5695 5.24874 12.0874 4.95907L11.3148 6.24483ZM12.0004 6.91954L13.2583 7.73667C13.3317 7.62357 13.3998 7.56582 13.4585 7.53058L12.6859 6.24483L11.9134 4.95907C11.4313 5.24874 11.0423 5.6408 10.7425 6.10241L12.0004 6.91954ZM12.6859 6.24483L13.4596 7.52991C13.4602 7.52952 13.4627 7.52808 13.4679 7.52593C13.4733 7.52375 13.4828 7.52029 13.4977 7.51658C13.5276 7.50911 13.5817 7.5 13.667 7.5V6V4.5C13.0689 4.5 12.4617 4.62898 11.9123 4.95974L12.6859 6.24483ZM13.667 6V7.5H18.667V6V4.5H13.667V6ZM18.667 6V7.5C18.8958 7.5 19.0309 7.5622 19.1697 7.70575L20.2481 6.66322L21.3266 5.62069C20.6106 4.87995 19.6916 4.5 18.667 4.5V6ZM20.2481 6.66322L19.1697 7.70575C19.3109 7.85187 19.3893 8.01629 19.3893 8.29885H20.8893H22.3893C22.3893 7.28486 22.0402 6.35886 21.3266 5.62069L20.2481 6.66322ZM20.8893 8.29885H19.3893V10.9425H20.8893H22.3893V8.29885H20.8893ZM20.8893 10.9425L20.1836 12.2662C20.2552 12.3044 20.3129 12.355 20.3695 12.4703L21.7159 11.8092L23.0624 11.148C22.7412 10.494 22.2477 9.96689 21.5949 9.61888L20.8893 10.9425ZM21.7159 11.8092L20.3705 12.4724C20.4842 12.7031 20.5004 12.8383 20.5004 12.8966H22.0004H23.5004C23.5004 12.2743 23.3269 11.6846 23.0613 11.146L21.7159 11.8092ZM22.0004 12.8966H20.5004V18.6437H22.0004H23.5004V12.8966H22.0004ZM22.0004 18.6437V17.1437H20.8893V18.6437V20.1437H22.0004V18.6437ZM20.8893 18.6437H22.3893V16.3448H20.8893H19.3893V18.6437H20.8893ZM20.8893 16.3448V14.8448H3.11148V16.3448V17.8448H20.8893V16.3448ZM3.11148 16.3448H1.61148V18.6437H3.11148H4.61148V16.3448H3.11148ZM3.11148 18.6437V17.1437H2.00037V18.6437V20.1437H3.11148V18.6437ZM12.5559 10.5977V12.0977H19.7781V10.5977V9.0977H12.5559V10.5977ZM19.7781 10.5977H21.2781V8.29885H19.7781H18.2781V10.5977H19.7781ZM19.7781 8.29885H21.2781C21.2781 7.61033 21.0379 6.95471 20.5348 6.43605L19.4581 7.48046L18.3815 8.52487C18.3558 8.49843 18.3237 8.45405 18.3011 8.39625C18.2792 8.34014 18.2781 8.30206 18.2781 8.29885H19.7781ZM19.4581 7.48046L20.5348 6.43605C20.032 5.91773 19.3778 5.65116 18.6707 5.64943L18.667 7.14943L18.6634 8.64942C18.6424 8.64937 18.589 8.6448 18.5213 8.6165C18.4529 8.58787 18.4058 8.54991 18.3815 8.52487L19.4581 7.48046ZM18.667 7.14943V5.64943H13.667V7.14943V8.64943H18.667V7.14943ZM13.667 7.14943V5.64943C12.9572 5.64943 12.2996 5.91668 11.7956 6.4398L12.8759 7.48046L13.9562 8.52112C13.9309 8.54738 13.8823 8.58656 13.8122 8.61593C13.7428 8.64493 13.6882 8.64943 13.667 8.64943V7.14943ZM12.8759 7.48046L11.7956 6.4398C11.2973 6.95715 11.0575 7.60931 11.0559 8.29543L12.5559 8.29885L14.0559 8.30227C14.0559 8.30532 14.0548 8.3423 14.0335 8.39682C14.0115 8.45294 13.9806 8.49582 13.9562 8.52112L12.8759 7.48046ZM12.5559 8.29885H11.0559V10.5977H12.5559H14.0559V8.29885H12.5559ZM4.22259 10.5977V12.0977H11.4448V10.5977V9.0977H4.22259V10.5977ZM11.4448 10.5977H12.9448V8.29885H11.4448H9.94481V10.5977H11.4448ZM11.4448 8.29885H12.9448C12.9448 7.61034 12.7046 6.95471 12.2015 6.43605L11.1248 7.48046L10.0481 8.52487C10.0225 8.49842 9.99041 8.45405 9.96781 8.39624C9.94587 8.34014 9.94481 8.30206 9.94481 8.29885H11.4448ZM11.1248 7.48046L12.2015 6.43605C11.6987 5.91773 11.0445 5.65116 10.3374 5.64943L10.3337 7.14943L10.33 8.64942C10.3091 8.64937 10.2557 8.6448 10.188 8.6165C10.1196 8.58787 10.0724 8.54991 10.0481 8.52487L11.1248 7.48046ZM10.3337 7.14943V5.64943H5.3337V7.14943V8.64943H10.3337V7.14943ZM5.3337 7.14943V5.64943C4.62389 5.64943 3.96623 5.91668 3.4623 6.4398L4.54259 7.48046L5.62288 8.52112C5.59758 8.54738 5.54901 8.58656 5.47883 8.61593C5.40951 8.64493 5.35488 8.64943 5.3337 8.64943V7.14943ZM4.54259 7.48046L3.4623 6.4398C2.96392 6.95716 2.72416 7.60931 2.72259 8.29543L4.22259 8.29885L5.72258 8.30227C5.72258 8.30532 5.72146 8.3423 5.70015 8.39682C5.67821 8.45293 5.64725 8.49582 5.62288 8.52112L4.54259 7.48046ZM4.22259 8.29885H2.72259V10.5977H4.22259H5.72259V8.29885H4.22259ZM3.11148 15.1954V16.6954H20.8893V15.1954V13.6954H3.11148V15.1954ZM20.8893 15.1954H22.3893V12.8966H20.8893H19.3893V15.1954H20.8893ZM20.8893 12.8966H22.3893C22.3893 12.208 22.149 11.5524 21.6459 11.0338L20.5693 12.0782L19.4926 13.1226C19.4669 13.0961 19.4349 13.0518 19.4123 12.9939C19.3903 12.9378 19.3893 12.8998 19.3893 12.8966H20.8893ZM20.5693 12.0782L21.6459 11.0338C21.1431 10.5154 20.4889 10.2489 19.7818 10.2471L19.7781 11.7471L19.7745 13.2471C19.7535 13.2471 19.7001 13.2425 19.6325 13.2142C19.564 13.1856 19.5169 13.1476 19.4926 13.1226L20.5693 12.0782ZM19.7781 11.7471V10.2471H4.22259V11.7471V13.2471H19.7781V11.7471ZM4.22259 11.7471V10.2471C3.51278 10.2471 2.85511 10.5144 2.35118 11.0375L3.43148 12.0782L4.51177 13.1188C4.48647 13.1451 4.4379 13.1843 4.36772 13.2136C4.2984 13.2426 4.24376 13.2471 4.22259 13.2471V11.7471ZM3.43148 12.0782L2.35118 11.0375C1.85281 11.5549 1.61305 12.207 1.61148 12.8931L3.11148 12.8966L4.61147 12.9C4.61147 12.903 4.61035 12.94 4.58904 12.9945C4.56709 13.0506 4.53614 13.0935 4.51177 13.1188L3.43148 12.0782ZM3.11148 12.8966H1.61148V15.1954H3.11148H4.61148V12.8966H3.11148Z" fill="#155DFC" mask="url(#path-1-inside-1_5109_15777)"/>
</svg>
