<svg width="106" height="28" viewBox="0 0 106 28" fill="none" xmlns="http://www.w3.org/2000/svg">
<path d="M15.9082 13.957C17.0684 14.4023 18.0117 15.2227 18.7383 16.418C19.4766 17.6133 19.8457 18.9434 19.8457 20.4082C19.8457 22.3652 19.1777 23.9766 17.8418 25.2422C16.5059 26.5078 14.8301 27.1406 12.8144 27.1406H-3.8147e-06V2.30273H12.0234C13.8984 2.30273 15.4687 2.90625 16.7344 4.11328C18.0117 5.30859 18.6504 6.82617 18.6504 8.66602C18.6504 9.7793 18.3926 10.8105 17.8769 11.7598C17.373 12.709 16.7168 13.4414 15.9082 13.957ZM10.6172 7.34766H5.39648V12.0234H10.6172C11.2617 12.0234 11.8066 11.8008 12.2519 11.3555C12.6973 10.9102 12.9199 10.3535 12.9199 9.68555C12.9199 9.00586 12.6973 8.44922 12.2519 8.01562C11.8184 7.57031 11.2734 7.34766 10.6172 7.34766ZM11.4434 22.0957C12.2051 22.0957 12.8379 21.8438 13.3418 21.3398C13.8574 20.8242 14.1152 20.1914 14.1152 19.4414C14.1152 18.6797 13.8574 18.041 13.3418 17.5254C12.8262 16.998 12.1934 16.7344 11.4434 16.7344H5.39648V22.0957H11.4434ZM40.4831 18.0352C40.4831 18.668 40.448 19.2188 40.3777 19.6875H26.7019C27.03 20.7188 27.6101 21.5273 28.4421 22.1133C29.2741 22.6992 30.2644 22.9922 31.4128 22.9922C32.3972 22.9922 33.2937 22.7988 34.1023 22.4121C34.9109 22.0254 35.5495 21.5391 36.0183 20.9531L39.5515 24.0117C38.5554 25.1367 37.3425 26.0156 35.9128 26.6484C34.4831 27.2695 32.9362 27.5801 31.2722 27.5801C28.3542 27.5801 25.9167 26.6543 23.9597 24.8027C22.0144 22.9395 21.0417 20.625 21.0417 17.8594C21.0417 16.0898 21.4636 14.4785 22.3073 13.0254C23.1628 11.5723 24.3405 10.4297 25.8405 9.59766C27.3405 8.76563 29.0046 8.34961 30.8327 8.34961C33.5866 8.34961 35.8835 9.26953 37.7234 11.1094C39.5632 12.9492 40.4831 15.2578 40.4831 18.0352ZM30.7624 12.8848C29.778 12.8848 28.9167 13.1836 28.1784 13.7812C27.4402 14.3672 26.9362 15.1699 26.6667 16.1895H34.9109C34.6179 15.1582 34.1023 14.3496 33.364 13.7637C32.6257 13.1777 31.7585 12.8848 30.7624 12.8848ZM45.4057 6.43359C44.4916 6.43359 43.7241 6.12891 43.103 5.51953C42.4819 4.89844 42.1713 4.125 42.1713 3.19922C42.1713 2.28516 42.4819 1.52344 43.103 0.914062C43.7241 0.304687 44.4916 0 45.4057 0C46.3432 0 47.1225 0.304687 47.7436 0.914062C48.3764 1.52344 48.6928 2.28516 48.6928 3.19922C48.6928 4.125 48.3764 4.89844 47.7436 5.51953C47.1225 6.12891 46.3432 6.43359 45.4057 6.43359ZM42.7866 27.1406V8.78906H48.0424V27.1406H42.7866ZM63.0724 13.5703H58.3615V20.3027C58.3615 21.7676 59.1291 22.5 60.6642 22.5C61.4259 22.5 62.2287 22.2832 63.0724 21.8496V26.7891C62.0294 27.3164 60.8576 27.5801 59.5568 27.5801C57.4005 27.5801 55.7834 27.0059 54.7052 25.8574C53.6388 24.6973 53.1056 23.1328 53.1056 21.1641V13.5703H50.3283V8.78906H53.1056V4.23633H58.3615V8.78906H63.0724V13.5703ZM78.5067 8.78906H83.7626V27.1406H78.5067V25.3125C77.0302 26.8242 75.1786 27.5801 72.952 27.5801C70.4325 27.5801 68.3231 26.6602 66.6239 24.8203C64.9364 22.9805 64.0927 20.6953 64.0927 17.9648C64.0927 15.2344 64.9364 12.9492 66.6239 11.1094C68.3231 9.26953 70.4325 8.34961 72.952 8.34961C75.1786 8.34961 77.0302 9.10547 78.5067 10.6172V8.78906ZM74.0067 22.5C75.2958 22.5 76.368 22.0664 77.2235 21.1992C78.079 20.332 78.5067 19.2539 78.5067 17.9648C78.5067 16.6758 78.079 15.5977 77.2235 14.7305C76.368 13.8633 75.2958 13.4297 74.0067 13.4297C72.7294 13.4297 71.663 13.8633 70.8075 14.7305C69.9637 15.5977 69.5419 16.6758 69.5419 17.9648C69.5419 19.2539 69.9637 20.332 70.8075 21.1992C71.663 22.0664 72.7294 22.5 74.0067 22.5ZM98.6519 27.1406L93.8355 21.2344L92.4644 22.7109V27.1406H87.2086V1.21289H92.4644V15.627L98.5113 8.78906H105.314L97.5445 17.2441L105.56 27.1406H98.6519Z" fill="#155DFC"/>
</svg>
