<svg width="24" height="24" viewBox="0 0 24 24" fill="none" xmlns="http://www.w3.org/2000/svg">
<path d="M9 3H4C3.44772 3 3 3.44772 3 4V11C3 11.5523 3.44772 12 4 12H9C9.55228 12 10 11.5523 10 11V4C10 3.44772 9.55228 3 9 3Z" stroke="#155DFC" stroke-width="2" stroke-linecap="round" stroke-linejoin="round"/>
<path d="M20.0001 3H15.0001C14.4478 3 14.0001 3.44772 14.0001 4V7C14.0001 7.55228 14.4478 8 15.0001 8H20.0001C20.5524 8 21.0001 7.55228 21.0001 7V4C21.0001 3.44772 20.5524 3 20.0001 3Z" stroke="#155DFC" stroke-width="2" stroke-linecap="round" stroke-linejoin="round"/>
<path d="M20.0001 12H15.0001C14.4478 12 14.0001 12.4477 14.0001 13V20C14.0001 20.5523 14.4478 21 15.0001 21H20.0001C20.5524 21 21.0001 20.5523 21.0001 20V13C21.0001 12.4477 20.5524 12 20.0001 12Z" stroke="#155DFC" stroke-width="2" stroke-linecap="round" stroke-linejoin="round"/>
<path d="M9 16.0001H4C3.44772 16.0001 3 16.4478 3 17.0001V20.0001C3 20.5523 3.44772 21.0001 4 21.0001H9C9.55228 21.0001 10 20.5523 10 20.0001V17.0001C10 16.4478 9.55228 16.0001 9 16.0001Z" stroke="#155DFC" stroke-width="2" stroke-linecap="round" stroke-linejoin="round"/>
</svg>
