<svg width="20" height="13" viewBox="0 0 20 13" fill="none" xmlns="http://www.w3.org/2000/svg">
<mask id="path-1-inside-1_5109_15778" fill="white">
<path d="M0 12.6437V6.89655C0 6.55632 0.0948149 6.19387 0.284444 5.8092C0.474074 5.42452 0.74963 5.13563 1.11111 4.94253V2.29885C1.11111 1.65057 1.32481 1.10536 1.75222 0.663219C2.17963 0.221073 2.70667 0 3.33333 0H8.33333C8.7163 0 9.04333 0.081609 9.31445 0.244827C9.58482 0.407279 9.81333 0.632184 10 0.91954C10.1867 0.632184 10.4152 0.407279 10.6856 0.244827C10.9567 0.081609 11.2837 0 11.6667 0H16.6667C17.2933 0 17.8204 0.221073 18.2478 0.663219C18.6752 1.10536 18.8889 1.65057 18.8889 2.29885V4.94253C19.2511 5.13563 19.5267 5.42452 19.7156 5.8092C19.9052 6.19387 20 6.55632 20 6.89655V12.6437H18.8889V10.3448H1.11111V12.6437H0ZM10.5556 4.5977H17.7778V2.29885C17.7778 1.97318 17.6711 1.70038 17.4578 1.48046C17.2444 1.26054 16.9807 1.15019 16.6667 1.14943H11.6667C11.3519 1.14943 11.0881 1.25977 10.8756 1.48046C10.663 1.70115 10.5563 1.97395 10.5556 2.29885V4.5977ZM2.22222 4.5977H9.44444V2.29885C9.44444 1.97318 9.33778 1.70038 9.12444 1.48046C8.91111 1.26054 8.64741 1.15019 8.33333 1.14943H3.33333C3.01852 1.14943 2.75482 1.25977 2.54222 1.48046C2.32963 1.70115 2.22296 1.97395 2.22222 2.29885V4.5977ZM1.11111 9.1954H18.8889V6.89655C18.8889 6.57088 18.7822 6.29808 18.5689 6.07816C18.3556 5.85824 18.0919 5.74789 17.7778 5.74713H2.22222C1.90741 5.74713 1.6437 5.85747 1.43111 6.07816C1.21852 6.29885 1.11185 6.57165 1.11111 6.89655V9.1954Z"/>
</mask>
<path d="M0 12.6437H-1.5V14.1437H0V12.6437ZM1.11111 4.94253L1.81789 6.26558L2.61111 5.84184V4.94253H1.11111ZM9.31445 0.244827L8.54078 1.52991L8.5419 1.53058L9.31445 0.244827ZM10 0.91954L8.7421 1.73667L10 3.67308L11.2579 1.73667L10 0.91954ZM10.6856 0.244827L11.4581 1.53058L11.4592 1.52991L10.6856 0.244827ZM18.8889 2.29885H17.3889H18.8889ZM18.8889 4.94253H17.3889V5.84271L18.1832 6.26618L18.8889 4.94253ZM19.7156 5.8092L18.3691 6.47034L18.3701 6.47243L19.7156 5.8092ZM20 12.6437V14.1437H21.5V12.6437H20ZM18.8889 12.6437H17.3889V14.1437H18.8889V12.6437ZM18.8889 10.3448H20.3889V8.84483H18.8889V10.3448ZM1.11111 10.3448V8.84483H-0.388889V10.3448H1.11111ZM1.11111 12.6437V14.1437H2.61111V12.6437H1.11111ZM10.5556 4.5977H9.05556V6.0977H10.5556V4.5977ZM17.7778 4.5977V6.0977H19.2778V4.5977H17.7778ZM16.6667 1.14943L16.6703 -0.350575H16.6667V1.14943ZM10.5556 2.29885L9.05556 2.29543V2.29885H10.5556ZM2.22222 4.5977H0.722222V6.0977H2.22222V4.5977ZM9.44444 4.5977V6.0977H10.9444V4.5977H9.44444ZM8.33333 1.14943L8.33699 -0.350575H8.33333V1.14943ZM2.22222 2.29885L0.722222 2.29543V2.29885H2.22222ZM1.11111 9.1954H-0.388889V10.6954H1.11111V9.1954ZM18.8889 9.1954V10.6954H20.3889V9.1954H18.8889ZM17.7778 5.74713L17.7814 4.24713H17.7778V5.74713ZM1.11111 6.89655L-0.388889 6.89313V6.89655H1.11111ZM0 12.6437H1.5V6.89655H0H-1.5V12.6437H0ZM0 6.89655H1.5C1.5 6.8383 1.51613 6.70312 1.62985 6.47243L0.284444 5.8092L-1.06096 5.14596C-1.3265 5.68462 -1.5 6.27434 -1.5 6.89655H0ZM0.284444 5.8092L1.62985 6.47243C1.68767 6.35513 1.7464 6.30377 1.81789 6.26558L1.11111 4.94253L0.404336 3.61948C-0.247142 3.9675 -0.739526 4.49391 -1.06096 5.14596L0.284444 5.8092ZM1.11111 4.94253H2.61111V2.29885H1.11111H-0.388889V4.94253H1.11111ZM1.11111 2.29885H2.61111C2.61111 2.01629 2.68946 1.85187 2.8307 1.70575L1.75222 0.663219L0.67374 -0.379315C-0.0398258 0.358857 -0.388889 1.28486 -0.388889 2.29885H1.11111ZM1.75222 0.663219L2.8307 1.70575C2.96948 1.5622 3.10458 1.5 3.33333 1.5V0V-1.5C2.30876 -1.5 1.38978 -1.12005 0.67374 -0.379315L1.75222 0.663219ZM3.33333 0V1.5H8.33333V0V-1.5H3.33333V0ZM8.33333 0V1.5C8.41868 1.5 8.47275 1.50911 8.50266 1.51658C8.51754 1.52029 8.52708 1.52375 8.53242 1.52593C8.53767 1.52808 8.54013 1.52952 8.54078 1.52991L9.31445 0.244827L10.0881 -1.04026C9.5387 -1.37102 8.9315 -1.5 8.33333 -1.5V0ZM9.31445 0.244827L8.5419 1.53058C8.60054 1.56582 8.66863 1.62356 8.7421 1.73667L10 0.91954L11.2579 0.102412C10.958 -0.359195 10.5691 -0.751258 10.087 -1.04093L9.31445 0.244827ZM10 0.91954L11.2579 1.73667C11.3314 1.62357 11.3995 1.56582 11.4581 1.53058L10.6856 0.244827L9.91301 -1.04093C9.43091 -0.751259 9.04197 -0.359197 8.7421 0.102412L10 0.91954ZM10.6856 0.244827L11.4592 1.52991C11.4599 1.52952 11.4623 1.52808 11.4676 1.52593C11.4729 1.52375 11.4825 1.52029 11.4973 1.51658C11.5273 1.50911 11.5813 1.5 11.6667 1.5V0V-1.5C11.0685 -1.5 10.4613 -1.37102 9.91189 -1.04026L10.6856 0.244827ZM11.6667 0V1.5H16.6667V0V-1.5H11.6667V0ZM16.6667 0V1.5C16.8954 1.5 17.0305 1.5622 17.1693 1.70575L18.2478 0.663219L19.3263 -0.379315C18.6102 -1.12005 17.6912 -1.5 16.6667 -1.5V0ZM18.2478 0.663219L17.1693 1.70575C17.3105 1.85187 17.3889 2.01629 17.3889 2.29885H18.8889H20.3889C20.3889 1.28486 20.0398 0.358857 19.3263 -0.379315L18.2478 0.663219ZM18.8889 2.29885H17.3889V4.94253H18.8889H20.3889V2.29885H18.8889ZM18.8889 4.94253L18.1832 6.26618C18.2549 6.30437 18.3125 6.35502 18.3691 6.47034L19.7156 5.8092L21.062 5.14805C20.7408 4.49402 20.2473 3.96689 19.5945 3.61888L18.8889 4.94253ZM19.7156 5.8092L18.3701 6.47243C18.4839 6.70312 18.5 6.8383 18.5 6.89655H20H21.5C21.5 6.27434 21.3265 5.68462 21.061 5.14596L19.7156 5.8092ZM20 6.89655H18.5V12.6437H20H21.5V6.89655H20ZM20 12.6437V11.1437H18.8889V12.6437V14.1437H20V12.6437ZM18.8889 12.6437H20.3889V10.3448H18.8889H17.3889V12.6437H18.8889ZM18.8889 10.3448V8.84483H1.11111V10.3448V11.8448H18.8889V10.3448ZM1.11111 10.3448H-0.388889V12.6437H1.11111H2.61111V10.3448H1.11111ZM1.11111 12.6437V11.1437H0V12.6437V14.1437H1.11111V12.6437ZM10.5556 4.5977V6.0977H17.7778V4.5977V3.0977H10.5556V4.5977ZM17.7778 4.5977H19.2778V2.29885H17.7778H16.2778V4.5977H17.7778ZM17.7778 2.29885H19.2778C19.2778 1.61033 19.0376 0.95471 18.5344 0.436054L17.4578 1.48046L16.3811 2.52487C16.3555 2.49843 16.3234 2.45405 16.3008 2.39625C16.2788 2.34014 16.2778 2.30206 16.2778 2.29885H17.7778ZM17.4578 1.48046L18.5344 0.436054C18.0317 -0.0822688 17.3775 -0.348845 16.6703 -0.35057L16.6667 1.14943L16.663 2.64942C16.6421 2.64937 16.5886 2.6448 16.521 2.6165C16.4526 2.58787 16.4054 2.54991 16.3811 2.52487L17.4578 1.48046ZM16.6667 1.14943V-0.350575H11.6667V1.14943V2.64943H16.6667V1.14943ZM11.6667 1.14943V-0.350575C10.9569 -0.350575 10.2992 -0.0833207 9.79526 0.439803L10.8756 1.48046L11.9558 2.52112C11.9306 2.54738 11.882 2.58656 11.8118 2.61593C11.7425 2.64493 11.6878 2.64943 11.6667 2.64943V1.14943ZM10.8756 1.48046L9.79526 0.439803C9.29689 0.957155 9.05712 1.60931 9.05556 2.29543L10.5556 2.29885L12.0556 2.30227C12.0555 2.30532 12.0544 2.3423 12.0331 2.39682C12.0112 2.45294 11.9802 2.49582 11.9558 2.52112L10.8756 1.48046ZM10.5556 2.29885H9.05556V4.5977H10.5556H12.0556V2.29885H10.5556ZM2.22222 4.5977V6.0977H9.44444V4.5977V3.0977H2.22222V4.5977ZM9.44444 4.5977H10.9444V2.29885H9.44444H7.94444V4.5977H9.44444ZM9.44444 2.29885H10.9444C10.9444 1.61034 10.7042 0.954712 10.2011 0.436054L9.12444 1.48046L8.04778 2.52487C8.02213 2.49842 7.99005 2.45405 7.96744 2.39624C7.9455 2.34014 7.94444 2.30206 7.94444 2.29885H9.44444ZM9.12444 1.48046L10.2011 0.436054C9.69832 -0.0822697 9.04413 -0.348845 8.33699 -0.35057L8.33333 1.14943L8.32967 2.64942C8.30873 2.64937 8.25529 2.6448 8.18765 2.6165C8.11923 2.58787 8.07207 2.54991 8.04778 2.52487L9.12444 1.48046ZM8.33333 1.14943V-0.350575H3.33333V1.14943V2.64943H8.33333V1.14943ZM3.33333 1.14943V-0.350575C2.62353 -0.350575 1.96586 -0.0833207 1.46193 0.439803L2.54222 1.48046L3.62252 2.52112C3.59722 2.54738 3.54865 2.58656 3.47846 2.61593C3.40914 2.64493 3.35451 2.64943 3.33333 2.64943V1.14943ZM2.54222 1.48046L1.46193 0.439803C0.963558 0.957156 0.72379 1.60931 0.722226 2.29543L2.22222 2.29885L3.72222 2.30227C3.72221 2.30532 3.7211 2.3423 3.69978 2.39682C3.67784 2.45293 3.64689 2.49582 3.62252 2.52112L2.54222 1.48046ZM2.22222 2.29885H0.722222V4.5977H2.22222H3.72222V2.29885H2.22222ZM1.11111 9.1954V10.6954H18.8889V9.1954V7.6954H1.11111V9.1954ZM18.8889 9.1954H20.3889V6.89655H18.8889H17.3889V9.1954H18.8889ZM18.8889 6.89655H20.3889C20.3889 6.20804 20.1487 5.55242 19.6456 5.03375L18.5689 6.07816L17.4922 7.12257C17.4666 7.09612 17.4345 7.05175 17.4119 6.99394C17.3899 6.93784 17.3889 6.89976 17.3889 6.89655H18.8889ZM18.5689 6.07816L19.6456 5.03375C19.1428 4.51543 18.4886 4.24886 17.7814 4.24713L17.7778 5.74713L17.7741 7.24712C17.7532 7.24707 17.6997 7.24251 17.6321 7.2142C17.5637 7.18557 17.5165 7.14761 17.4922 7.12257L18.5689 6.07816ZM17.7778 5.74713V4.24713H2.22222V5.74713V7.24713H17.7778V5.74713ZM2.22222 5.74713V4.24713C1.51242 4.24713 0.854748 4.51438 0.350818 5.0375L1.43111 6.07816L2.5114 7.11882C2.48611 7.14508 2.43753 7.18426 2.36735 7.21363C2.29803 7.24263 2.2434 7.24713 2.22222 7.24713V5.74713ZM1.43111 6.07816L0.350818 5.0375C-0.147554 5.55486 -0.387321 6.20702 -0.388885 6.89313L1.11111 6.89655L2.61111 6.89997C2.6111 6.90302 2.60999 6.94 2.58867 6.99452C2.56673 7.05064 2.53577 7.09352 2.5114 7.11882L1.43111 6.07816ZM1.11111 6.89655H-0.388889V9.1954H1.11111H2.61111V6.89655H1.11111Z" fill="#155DFC" mask="url(#path-1-inside-1_5109_15778)"/>
</svg>
