<svg width="20" height="20" viewBox="0 0 20 20" fill="none" xmlns="http://www.w3.org/2000/svg">
<path d="M14 15.0001L19 10.0001M19 10.0001L14 5.00012M19 10.0001H7M10 15.0001C10 15.9301 10 16.3951 9.89778 16.7766C9.62038 17.8119 8.81173 18.6205 7.77646 18.8979C7.39496 19.0001 6.92997 19.0001 6 19.0001H5.5C4.10218 19.0001 3.40326 19.0001 2.85195 18.7718C2.11687 18.4673 1.53284 17.8833 1.22836 17.1482C1 16.5969 1 15.8979 1 14.5001V5.50012C1 4.1023 1 3.40338 1.22836 2.85207C1.53284 2.11699 2.11687 1.53297 2.85195 1.22848C3.40326 1.00012 4.10218 1.00012 5.5 1.00012H6C6.92997 1.00012 7.39496 1.00012 7.77646 1.10234C8.81173 1.37975 9.62038 2.18839 9.89778 3.22366C10 3.60516 10 4.07015 10 5.00012" stroke="#F04438" stroke-width="2" stroke-linecap="round" stroke-linejoin="round"/>
</svg>
