<svg width="20" height="20" viewBox="0 0 20 20" fill="none" xmlns="http://www.w3.org/2000/svg">
<path d="M8.55664 17.5C8.70293 17.7533 8.91332 17.9637 9.16668 18.11C9.42003 18.2563 9.70743 18.3333 9.99997 18.3333C10.2925 18.3333 10.5799 18.2563 10.8333 18.11C11.0866 17.9637 11.297 17.7533 11.4433 17.5" stroke="#191B1F" stroke-width="1.5" stroke-linecap="round" stroke-linejoin="round"/>
<path d="M2.71785 12.772C2.60898 12.8913 2.53714 13.0397 2.51106 13.1991C2.48498 13.3585 2.50578 13.522 2.57094 13.6698C2.63609 13.8176 2.74279 13.9433 2.87806 14.0316C3.01333 14.1198 3.17133 14.1669 3.33285 14.167H16.6662C16.8277 14.167 16.9857 14.1202 17.1211 14.0321C17.2564 13.944 17.3633 13.8184 17.4286 13.6708C17.4939 13.5231 17.5149 13.3596 17.489 13.2001C17.4632 13.0407 17.3915 12.8923 17.2828 12.7728C16.1745 11.6303 14.9995 10.4162 14.9995 6.66699C14.9995 5.34091 14.4727 4.06914 13.535 3.13146C12.5974 2.19378 11.3256 1.66699 9.99951 1.66699C8.67343 1.66699 7.40166 2.19378 6.46398 3.13146C5.5263 4.06914 4.99951 5.34091 4.99951 6.66699C4.99951 10.4162 3.82368 11.6303 2.71785 12.772Z" stroke="#191B1F" stroke-width="1.5" stroke-linecap="round" stroke-linejoin="round"/>
</svg>
